<svg xmlns="http://www.w3.org/2000/svg" viewBox="0 0 1180 610" width="100%" height="100%">
  <defs>
    <!-- Background Gradient -->
    <linearGradient id="bgGrad" x1="0%" y1="0%" x2="100%" y2="100%">
      <stop offset="0%" stop-color="#030712"/>
      <stop offset="100%" stop-color="#0b1329"/>
    </linearGradient>

    <!-- Glowing Radial Gradients -->
    <radialGradient id="glowViolet" cx="20%" cy="30%" r="40%">
      <stop offset="0%" stop-color="#7C3AED" stop-opacity="0.15"/>
      <stop offset="100%" stop-color="#7C3AED" stop-opacity="0"/>
    </radialGradient>
    <radialGradient id="glowCyan" cx="80%" cy="20%" r="45%">
      <stop offset="0%" stop-color="#22D3EE" stop-opacity="0.15"/>
      <stop offset="100%" stop-color="#22D3EE" stop-opacity="0"/>
    </radialGradient>
    <radialGradient id="glowEmerald" cx="50%" cy="80%" r="40%">
      <stop offset="0%" stop-color="#10B981" stop-opacity="0.12"/>
      <stop offset="100%" stop-color="#10B981" stop-opacity="0"/>
    </radialGradient>

    <!-- Shimmering Border Gradient -->
    <linearGradient id="borderShimmer" x1="0%" y1="0%" x2="100%" y2="100%">
      <animate attributeName="x1" values="0%;100%;0%" dur="12s" repeatCount="indefinite"/>
      <animate attributeName="y1" values="0%;100%;0%" dur="12s" repeatCount="indefinite"/>
      <stop offset="0%" stop-color="#7C3AED" stop-opacity="0.8"/>
      <stop offset="50%" stop-color="#22D3EE" stop-opacity="0.8"/>
      <stop offset="100%" stop-color="#10B981" stop-opacity="0.8"/>
    </linearGradient>

    <!-- Scanline Pattern -->
    <pattern id="scanlines" width="4" height="4" patternUnits="userSpaceOnUse">
      <line x1="0" y1="0" x2="4" y2="0" stroke="#ffffff" stroke-opacity="0.015" stroke-width="1"/>
    </pattern>

    <!-- ASCII Portrait Gradient -->
    <linearGradient id="asciiGrad" x1="0%" y1="0%" x2="0%" y2="100%">
      <stop offset="0%" stop-color="#22D3EE"/>
      <stop offset="50%" stop-color="#7C3AED"/>
      <stop offset="100%" stop-color="#10B981"/>
    </linearGradient>

    <!-- Title Gradient -->
    <linearGradient id="titleGrad" x1="0%" y1="0%" x2="100%" y2="0%">
      <stop offset="0%" stop-color="#F8FAFC"/>
      <stop offset="50%" stop-color="#22D3EE"/>
      <stop offset="100%" stop-color="#10B981"/>
    </linearGradient>

    <!-- Typing Mask for Command 1: kubectl get pods -->
    <mask id="typingMask1">
      <rect x="0" y="0" width="1180" height="610" fill="black"/>
      <rect x="562" y="120" width="0" height="30" fill="white">
        <animate attributeName="width" from="0" to="250" dur="1s" begin="1s" fill="freeze"/>
      </rect>
    </mask>

    <!-- Typing Mask for Command 2: terraform apply -->
    <mask id="typingMask2">
      <rect x="0" y="0" width="1180" height="610" fill="black"/>
      <rect x="562" y="270" width="0" height="30" fill="white">
        <animate attributeName="width" from="0" to="250" dur="1s" begin="4s" fill="freeze"/>
      </rect>
    </mask>

    <!-- Typing Mask for Command 3: aws eks update-kubeconfig -->
    <mask id="typingMask3">
      <rect x="0" y="0" width="1180" height="610" fill="black"/>
      <rect x="562" y="330" width="0" height="30" fill="white">
        <animate attributeName="width" from="0" to="250" dur="1.2s" begin="7s" fill="freeze"/>
      </rect>
    </mask>

    <!-- Typing Mask for Command 4: git push origin main -->
    <mask id="typingMask4">
      <rect x="0" y="0" width="1180" height="610" fill="black"/>
      <rect x="562" y="390" width="0" height="30" fill="white">
        <animate attributeName="width" from="0" to="250" dur="1s" begin="10s" fill="freeze"/>
      </rect>
    </mask>

    <!-- Drop Shadows -->
    <filter id="glow" x="-10%" y="-10%" width="120%" height="120%">
      <feGaussianBlur stdDeviation="6" result="blur"/>
      <feComposite in="SourceGraphic" in2="blur" operator="over"/>
    </filter>
  </defs>

  <style>
    .font-sans { font-family: 'Outfit', 'Inter', -apple-system, sans-serif; }
    .font-mono { font-family: 'Courier New', Courier, monospace; font-weight: 500; }
    .title { font-size: 26px; font-weight: 800; fill: url(#titleGrad); }
    .subtitle { font-size: 14px; font-weight: 600; fill: #94A3B8; letter-spacing: 1.5px; }
    .ascii-text { font-size: 11px; fill: url(#asciiGrad); line-height: 14px; }
    .term-header { font-size: 12px; fill: #64748B; font-weight: bold; }
    .term-body { font-size: 13.5px; fill: #F8FAFC; }
    .term-prompt { fill: #94A3B8; }
    .term-cmd { fill: #22D3EE; font-weight: bold; }
    .term-success { fill: #10B981; font-weight: bold; }
    .term-warning { fill: #F59E0B; }
    .term-error { fill: #EF4444; }
  </style>

  <!-- Background Base -->
  <rect width="1180" height="610" rx="16" fill="url(#bgGrad)"/>

  <!-- Radial Glow Orbs -->
  <rect width="1180" height="610" rx="16" fill="url(#glowViolet)"/>
  <rect width="1180" height="610" rx="16" fill="url(#glowCyan)"/>
  <rect width="1180" height="610" rx="16" fill="url(#glowEmerald)"/>

  <!-- Noise Scanlines -->
  <rect width="1180" height="610" rx="16" fill="url(#scanlines)" pointer-events="none"/>

  <!-- Floating Particles -->
  <g opacity="0.6">
    <circle cx="150" cy="120" r="1.5" fill="#22D3EE">
      <animate attributeName="opacity" values="0.2;0.8;0.2" dur="4s" repeatCount="indefinite"/>
      <animate attributeName="cy" values="120;100;120" dur="6s" repeatCount="indefinite"/>
    </circle>
    <circle cx="350" cy="500" r="1" fill="#7C3AED">
      <animate attributeName="opacity" values="0.1;0.6;0.1" dur="5s" repeatCount="indefinite"/>
      <animate attributeName="cy" values="500;480;500" dur="7s" repeatCount="indefinite"/>
    </circle>
    <circle cx="450" cy="180" r="2" fill="#10B981">
      <animate attributeName="opacity" values="0.2;0.9;0.2" dur="6s" repeatCount="indefinite"/>
      <animate attributeName="cy" values="180;200;180" dur="8s" repeatCount="indefinite"/>
    </circle>
    <circle cx="80" cy="400" r="1.5" fill="#22D3EE">
      <animate attributeName="opacity" values="0.3;0.7;0.3" dur="4s" repeatCount="indefinite"/>
      <animate attributeName="cy" values="400;380;400" dur="5s" repeatCount="indefinite"/>
    </circle>
    <circle cx="1080" cy="100" r="2" fill="#22D3EE">
      <animate attributeName="opacity" values="0.2;0.8;0.2" dur="5s" repeatCount="indefinite"/>
      <animate attributeName="cy" values="100;120;100" dur="7s" repeatCount="indefinite"/>
    </circle>
    <circle cx="950" cy="520" r="1.5" fill="#7C3AED">
      <animate attributeName="opacity" values="0.1;0.7;0.1" dur="4s" repeatCount="indefinite"/>
      <animate attributeName="cy" values="520;500;520" dur="6s" repeatCount="indefinite"/>
    </circle>
  </g>

  <!-- Left Column: Header Info -->
  <g transform="translate(60, 60)" class="font-sans">
    <!-- About Me Mini Intro -->
    <text x="0" y="20" class="subtitle" font-weight="bold">PLATFORM ENGINEERING &amp; DEVOPS</text>
    <text x="0" y="55" class="title" filter="url(#glow)">ALTHAF HUSSAIN SYED</text>
    
    <!-- Rotating Subtitles -->
    <g transform="translate(0, 85)">
      <!-- DevOps & Platform Engineer -->
      <text x="0" y="0" font-size="16" fill="#22D3EE" font-weight="bold" opacity="1">
        <animate attributeName="opacity" values="1;1;0;0;0;0;1" keyTimes="0;0.29;0.33;0.66;0.96;0.99;1" dur="12s" repeatCount="indefinite"/>
        🚀 DevOps &amp; Cloud Platform Engineer
      </text>
      <!-- AWS Specialist -->
      <text x="0" y="0" font-size="16" fill="#10B981" font-weight="bold" opacity="0">
        <animate attributeName="opacity" values="0;0;1;1;0;0;0" keyTimes="0;0.29;0.33;0.62;0.66;0.99;1" dur="12s" repeatCount="indefinite"/>
        ☁️ AWS Infrastructure Specialist
      </text>
      <!-- Kubernetes & IaC Expert -->
      <text x="0" y="0" font-size="16" fill="#7C3AED" font-weight="bold" opacity="0">
        <animate attributeName="opacity" values="0;0;0;0;1;1;0" keyTimes="0;0.62;0.66;0.96;0.99;1;1" dur="12s" repeatCount="indefinite"/>
        ☸️ Kubernetes &amp; Terraform Automation
      </text>
    </g>
  </g>

  <!-- Left Column: Cybernetic ASCII Portrait Container (Subtle Floating Animation) -->
  <g transform="translate(60, 190)" class="font-mono ascii-text" xml:space="preserve">
    <animateTransform attributeName="transform" type="translate" values="60,190; 60,185; 60,190" dur="6s" repeatCount="indefinite"/>
    <!-- Line-by-line reveal using delayed opacities -->
    <!-- Three Animated DevOps Stack Icons Side-by-Side (Shifted Left) -->
    <!-- 1. Kubernetes Steering Wheel (Slow Rotation) -->
    <g opacity="0">
      <animate attributeName="opacity" to="0.95" dur="0.5s" begin="0.1s" fill="freeze"/>
      <g>
        <animateTransform attributeName="transform" type="rotate" from="0 50 80" to="360 50 80" dur="25s" repeatCount="indefinite"/>
        <!-- Background -->
        <polygon points="50,45 77.4,58.2 84.1,87.8 65.2,111.5 34.8,111.5 15.9,87.8 22.6,58.2" fill="#326ce5"/>
        <!-- Rim -->
        <polygon points="50,49 74.2,60.7 80.2,86.9 63.5,107.9 36.5,107.9 19.8,86.9 25.8,60.7" fill="none" stroke="#ffffff" stroke-width="4.5" stroke-linejoin="round"/>
        <!-- Spokes -->
        <g id="k8s-spoke-small-left">
          <line x1="50" y1="80" x2="50" y2="49" stroke="#ffffff" stroke-width="4.5"/>
          <circle cx="50" cy="45" r="5.5" fill="#ffffff"/>
          <circle cx="50" cy="45" r="2.2" fill="#326ce5"/>
        </g>
        <use href="#k8s-spoke-small-left" transform="rotate(51.43, 50, 80)"/>
        <use href="#k8s-spoke-small-left" transform="rotate(102.86, 50, 80)"/>
        <use href="#k8s-spoke-small-left" transform="rotate(154.29, 50, 80)"/>
        <use href="#k8s-spoke-small-left" transform="rotate(205.71, 50, 80)"/>
        <use href="#k8s-spoke-small-left" transform="rotate(257.14, 50, 80)"/>
        <use href="#k8s-spoke-small-left" transform="rotate(308.57, 50, 80)"/>
        <!-- Hub -->
        <circle cx="50" cy="80" r="9" fill="#326ce5" stroke="#ffffff" stroke-width="4.5"/>
      </g>
    </g>

    <!-- 2. Docker Whale (Swimming & Swinging Animation - Shifted Left) -->
    <g opacity="0">
      <animate attributeName="opacity" to="0.95" dur="0.5s" begin="0.25s" fill="freeze"/>
      <!-- Outer translate drift (swimming left & right) -->
      <g>
        <animateTransform attributeName="transform" type="translate" values="-3,0; 3,0; -3,0" dur="6s" repeatCount="indefinite"/>
        <!-- Inner rotate swing (tilting up & down) -->
        <g>
          <animateTransform attributeName="transform" type="rotate" values="-4 140 80; 4 140 80; -4 140 80" dur="5s" repeatCount="indefinite"/>
          <!-- Whale silhouette path scaled & translated -->
          <path transform="translate(104, 44) scale(3.0)" d="M13.983 11.078h2.119a.186.186 0 00.186-.185V9.006a.186.186 0 00-.186-.186h-2.119a.185.185 0 00-.185.185v1.888c0 .102.083.185.185.185m-2.954-5.43h2.118a.186.186 0 00.186-.186V3.574a.186.186 0 00-.186-.185h-2.118a.185.185 0 00-.185.185v1.888c0 .102.082.185.185.185m0 2.716h2.118a.187.187 0 00.186-.186V6.29a.186.186 0 00-.186-.185h-2.118a.185.185 0 00-.185.185v1.887c0 .102.082.185.185.186m-2.93 0h2.12a.186.186 0 00.184-.186V6.29a.185.185 0 00-.185-.185H8.1a.185.185 0 00-.185.185v1.887c0 .102.083.185.185.186m-2.964 0h2.119a.186.186 0 00.185-.186V6.29a.185.185 0 00-.185-.185H5.136a.186.186 0 00-.186.185v1.887c0 .102.084.185.186.186m5.893 2.715h2.118a.186.186 0 00.186-.185V9.006a.186.186 0 00-.186-.186h-2.118a.185.185 0 00-.185.185v1.888c0 .102.082.185.185.185m-2.93 0h2.12a.185.185 0 00.184-.185V9.006a.185.185 0 00-.184-.186h-2.12a.185.185 0 00-.184.185v1.888c0 .102.083.185.185.185m-2.964 0h2.119a.185.185 0 00.185-.185V9.006a.185.185 0 00-.184-.186h-2.12a.186.186 0 00-.186.186v1.887c0 .102.084.185.186.185m-2.92 0h2.12a.185.185 0 00.184-.185V9.006a.185.185 0 00-.184-.186h-2.12a.185.185 0 00-.184.185v1.888c0 .102.082.185.185.185M23.763 9.89c-.065-.051-.672-.51-1.954-.51-.338.001-.676.03-1.01.087-.248-1.7-1.653-2.53-1.716-2.566l-.344-.199-.226.327c-.284.438-.49.922-.612 1.43-.23.97-.09 1.882.403 2.661-.595.332-1.55.413-1.744.42H.751a.751.751 0 00-.75.748 11.376 11.376 0 00.692 4.062c.545 1.428 1.355 2.48 2.41 3.124 1.18.723 3.1 1.137 5.275 1.137.983.003 1.963-.086 2.93-.266a12.248 12.248 0 003.823-1.389c.98-.567 1.86-1.288 2.61-2.136 1.252-1.418 1.998-2.997 2.553-4.4h.221c1.372 0 2.215-.549 2.68-1.009.309-.293.55-.65.707-1.046l.098-.288Z" fill="#2496ed"/>
        </g>
      </g>
    </g>

    <!-- 3. GitHub Actions Logo (Accurate Shape & Passing Nodes Animation) -->
    <g>
      <!-- Base paths and nodes (Blinking and Pulsing) -->
      <g opacity="0">
        <animate attributeName="opacity" to="0.95" dur="0.3s" begin="0.4s" fill="freeze"/>
        <animate attributeName="opacity" values="0.4;1;0.4" dur="4s" repeatCount="indefinite"/>
        
        <!-- Connection lines -->
        <path id="actions-upper-line" d="M 215,64 C 215,72 225,72 235,72 L 255,72" stroke="#22d3ee" stroke-width="2.5" stroke-linecap="round" fill="none"/>
        <path id="actions-lower-line" d="M 215,64 L 215,88 C 215,96 225,96 235,96 L 255,96" stroke="#22d3ee" stroke-width="2.5" stroke-linecap="round" fill="none"/>
        
        <!-- Play button circle and arrow -->
        <circle cx="215" cy="52" r="12" stroke="#22d3ee" stroke-width="2.5" fill="none"/>
        <polygon points="212,47 212,57 220,52" fill="#22d3ee"/>

        <!-- Upper Checkmark 1 -->
        <circle cx="240" cy="72" r="7" stroke="#22d3ee" stroke-width="2.5" fill="none"/>
        <path d="M 237,72 L 239,74 L 243,70" stroke="#22d3ee" stroke-width="1.8" stroke-linecap="round" stroke-linejoin="round" fill="none"/>

        <!-- Upper Checkmark 2 -->
        <circle cx="262" cy="72" r="7" stroke="#22d3ee" stroke-width="2.5" fill="none"/>
        <path d="M 259,72 L 261,74 L 265,70" stroke="#22d3ee" stroke-width="1.8" stroke-linecap="round" stroke-linejoin="round" fill="none"/>

        <!-- Lower Node 1 (Dots) -->
        <circle cx="240" cy="96" r="7" stroke="#22d3ee" stroke-width="2.5" fill="none"/>
        <circle cx="237.5" cy="96" r="1.2" fill="#22d3ee"/>
        <circle cx="242.5" cy="96" r="1.2" fill="#22d3ee"/>

        <!-- Lower Node 2 (Status Circle - Pulsing) -->
        <circle cx="262" cy="96" r="7" stroke="#22d3ee" stroke-width="2.5" fill="none">
          <animate attributeName="stroke" values="#22d3ee;#7c3aed;#22d3ee" dur="2s" repeatCount="indefinite"/>
        </circle>
      </g>

      <!-- Active Passing Dots/Nodes (Animate along paths) -->
      <g opacity="0">
        <animate attributeName="opacity" to="0.95" dur="0.2s" begin="0.8s" fill="freeze"/>
        <!-- Upper branch running packet -->
        <circle r="2" fill="#ffffff">
          <animateMotion path="M 215,64 C 215,72 225,72 235,72 L 255,72" dur="2s" repeatCount="indefinite"/>
        </circle>
        <!-- Lower branch running packet -->
        <circle r="2" fill="#ffffff">
          <animateMotion path="M 215,64 L 215,88 C 215,96 225,96 235,96 L 255,96" dur="2.5s" repeatCount="indefinite"/>
        </circle>
      </g>
    </g>

    <!-- Slanted K8S Letters centered under the group (x=-35, textLength=350, height=9 lines) -->
    <text x="-35" y="170" font-size="18" font-family="'Courier New', Courier, monospace" font-weight="bold" textLength="350" opacity="0"><animate attributeName="opacity" to="0.95" dur="0.1s" begin="0.75s" fill="freeze"/>│       ╱       ╭───╮         ╭─────╮ </text>
    <text x="-35" y="188" font-size="18" font-family="'Courier New', Courier, monospace" font-weight="bold" textLength="350" opacity="0"><animate attributeName="opacity" to="0.95" dur="0.1s" begin="0.8s" fill="freeze"/>│     ╱          │     │        │      │ </text>
    <text x="-35" y="206" font-size="18" font-family="'Courier New', Courier, monospace" font-weight="bold" textLength="350" opacity="0"><animate attributeName="opacity" to="0.95" dur="0.1s" begin="0.85s" fill="freeze"/>│   ╱            │     │        │        </text>
    <text x="-35" y="224" font-size="18" font-family="'Courier New', Courier, monospace" font-weight="bold" textLength="350" opacity="0"><animate attributeName="opacity" to="0.95" dur="0.1s" begin="0.9s" fill="freeze"/>│ ╱               ├───┤         ╰─────╮ </text>
    <text x="-35" y="242" font-size="18" font-family="'Courier New', Courier, monospace" font-weight="bold" textLength="350" opacity="0"><animate attributeName="opacity" to="0.95" dur="0.1s" begin="0.95s" fill="freeze"/>├╱               │     │                │ </text>
    <text x="-35" y="260" font-size="18" font-family="'Courier New', Courier, monospace" font-weight="bold" textLength="350" opacity="0"><animate attributeName="opacity" to="0.95" dur="0.1s" begin="1.0s" fill="freeze"/>│ ╲              │     │                │ </text>
    <text x="-35" y="278" font-size="18" font-family="'Courier New', Courier, monospace" font-weight="bold" textLength="350" opacity="0"><animate attributeName="opacity" to="0.95" dur="0.1s" begin="1.05s" fill="freeze"/>│   ╲            │     │                │ </text>
    <text x="-35" y="296" font-size="18" font-family="'Courier New', Courier, monospace" font-weight="bold" textLength="350" opacity="0"><animate attributeName="opacity" to="0.95" dur="0.1s" begin="1.1s" fill="freeze"/>│     ╲          │     │        │      │ </text>
    <text x="-35" y="314" font-size="18" font-family="'Courier New', Courier, monospace" font-weight="bold" textLength="350" opacity="0"><animate attributeName="opacity" to="0.95" dur="0.1s" begin="1.15s" fill="freeze"/>│       ╲         ╰───╯         ╰─────╯ </text>
    <text x="-35" y="332" font-size="18" font-family="'Courier New', Courier, monospace" font-weight="bold" textLength="350" opacity="0"><animate attributeName="opacity" to="0.95" dur="0.1s" begin="1.2s" fill="freeze"/>                                        </text>
  </g>

  <!-- Right Column: DevOps Terminal Window -->
  <g>
    <!-- Terminal Outer Shadow -->
    <rect x="520" y="70" width="600" height="470" rx="12" fill="#000000" opacity="0.4"/>

    <!-- Terminal Window Header -->
    <rect x="520" y="70" width="600" height="35" rx="12" fill="#1E293B"/>
    <!-- Cover bottom corners of header -->
    <rect x="520" y="90" width="600" height="15" fill="#1E293B"/>

    <!-- Window Buttons -->
    <circle cx="545" cy="87.5" r="6" fill="#EF4444"/>
    <circle cx="565" cy="87.5" r="6" fill="#F59E0B"/>
    <circle cx="585" cy="87.5" r="6" fill="#10B981"/>

    <!-- Window Title -->
    <text x="820" y="92" class="font-mono term-header" text-anchor="middle">althaf@devops-node-01:~</text>

    <!-- Terminal Body -->
    <rect x="520" y="105" width="600" height="435" rx="12" fill="#090D16"/>
    <!-- Cover top corners of body -->
    <rect x="520" y="105" width="600" height="15" fill="#090D16"/>

    <!-- Terminal Content (Monospace text) -->
    <g class="font-mono term-body">
      
      <!-- ==================== COMMAND 1 ==================== -->
      <!-- Prompt and Command -->
      <text x="545" y="140"><tspan class="term-prompt">$ </tspan><tspan class="term-cmd" mask="url(#typingMask1)">kubectl get pods</tspan></text>
      
      <!-- Blinking Typing Cursor 1 -->
      <rect x="562" y="125" width="8" height="18" fill="#22D3EE" opacity="0">
        <set attributeName="opacity" to="1" begin="1s"/>
        <animate attributeName="x" from="562" to="700" dur="1s" begin="1s" fill="freeze"/>
        <animate attributeName="opacity" values="1;0;1" dur="0.8s" begin="1s" repeatCount="indefinite"/>
        <set attributeName="opacity" to="0" begin="2s"/>
      </rect>

      <!-- Output 1 (Appears instantly at 2.2s) -->
      <g opacity="0">
        <set attributeName="opacity" to="1" begin="2.2s"/>
        <text x="545" y="165" fill="#64748B" font-weight="bold">NAME          READY   STATUS    RESTARTS   AGE</text>
        <text x="545" y="185">frontend      1/1     <tspan class="term-success">Running</tspan>   0          42d</text>
        <text x="545" y="205">backend       1/1     <tspan class="term-success">Running</tspan>   0          42d</text>
        <text x="545" y="225">prometheus    1/1     <tspan class="term-success">Running</tspan>   0          108d</text>
        <text x="545" y="245">grafana       1/1     <tspan class="term-success">Running</tspan>   0          108d</text>
      </g>

      <!-- ==================== COMMAND 2 ==================== -->
      <!-- Prompt and Command -->
      <g opacity="0">
        <set attributeName="opacity" to="1" begin="3.8s"/>
        <text x="545" y="285"><tspan class="term-prompt">$ </tspan><tspan class="term-cmd" mask="url(#typingMask2)">terraform apply</tspan></text>
      </g>
      
      <!-- Blinking Typing Cursor 2 -->
      <rect x="562" y="270" width="8" height="18" fill="#22D3EE" opacity="0">
        <set attributeName="opacity" to="1" begin="4s"/>
        <animate attributeName="x" from="562" to="690" dur="1s" begin="4s" fill="freeze"/>
        <animate attributeName="opacity" values="1;0;1" dur="0.8s" begin="4s" repeatCount="indefinite"/>
        <set attributeName="opacity" to="0" begin="5s"/>
      </rect>

      <!-- Output 2 (Appears at 5.2s) -->
      <g opacity="0">
        <set attributeName="opacity" to="1" begin="5.2s"/>
        <text x="545" y="310" class="term-success">Apply complete! Resources: 47 added.</text>
      </g>

      <!-- ==================== COMMAND 3 ==================== -->
      <!-- Prompt and Command -->
      <g opacity="0">
        <set attributeName="opacity" to="1" begin="6.8s"/>
        <text x="545" y="350"><tspan class="term-prompt">$ </tspan><tspan class="term-cmd" mask="url(#typingMask3)">aws eks update-kubeconfig</tspan></text>
      </g>
      
      <!-- Blinking Typing Cursor 3 -->
      <rect x="562" y="335" width="8" height="18" fill="#22D3EE" opacity="0">
        <set attributeName="opacity" to="1" begin="7s"/>
        <animate attributeName="x" from="562" to="780" dur="1.2s" begin="7s" fill="freeze"/>
        <animate attributeName="opacity" values="1;0;1" dur="0.8s" begin="7s" repeatCount="indefinite"/>
        <set attributeName="opacity" to="0" begin="8.2s"/>
      </rect>

      <!-- Output 3 (Appears at 8.4s) -->
      <g opacity="0">
        <set attributeName="opacity" to="1" begin="8.4s"/>
        <text x="545" y="375" fill="#E2E8F0">Updated context.</text>
      </g>

      <!-- ==================== COMMAND 4 ==================== -->
      <!-- Prompt and Command -->
      <g opacity="0">
        <set attributeName="opacity" to="1" begin="9.8s"/>
        <text x="545" y="415"><tspan class="term-prompt">$ </tspan><tspan class="term-cmd" mask="url(#typingMask4)">git push origin main</tspan></text>
      </g>
      
      <!-- Blinking Typing Cursor 4 -->
      <rect x="562" y="400" width="8" height="18" fill="#22D3EE" opacity="0">
        <set attributeName="opacity" to="1" begin="10s"/>
        <animate attributeName="x" from="562" to="740" dur="1s" begin="10s" fill="freeze"/>
        <animate attributeName="opacity" values="1;0;1" dur="0.8s" begin="10s" repeatCount="indefinite"/>
        <set attributeName="opacity" to="0" begin="11s"/>
      </rect>

      <!-- Output 4 (Appears at 11.2s) -->
      <g opacity="0">
        <set attributeName="opacity" to="1" begin="11.2s"/>
        <text x="545" y="440" class="term-success">Deployment Successful ✔</text>
      </g>
      
    </g>
  </g>

  <!-- Interactive Border Shimmer (Double Frame for Depth) -->
  <rect x="1" y="1" width="1178" height="608" rx="16" fill="none" stroke="url(#borderShimmer)" stroke-width="2"/>
  <rect x="8" y="8" width="1164" height="594" rx="12" fill="none" stroke="#ffffff" stroke-opacity="0.04" stroke-width="1"/>
</svg>
