<svg xmlns="http://www.w3.org/2000/svg" viewBox="0 0 1180 610" width="100%" height="100%">
  <defs>
    <!-- Background Gradient -->
    <linearGradient id="bgGrad" x1="0%" y1="0%" x2="100%" y2="100%">
      <stop offset="0%" stop-color="#F8FAFC"/>
      <stop offset="100%" stop-color="#E2E8F0"/>
    </linearGradient>

    <!-- Glowing Radial Gradients (Subtler for Light Mode) -->
    <radialGradient id="glowViolet" cx="20%" cy="30%" r="40%">
      <stop offset="0%" stop-color="#8B5CF6" stop-opacity="0.08"/>
      <stop offset="100%" stop-color="#8B5CF6" stop-opacity="0"/>
    </radialGradient>
    <radialGradient id="glowCyan" cx="80%" cy="20%" r="45%">
      <stop offset="0%" stop-color="#06B6D4" stop-opacity="0.08"/>
      <stop offset="100%" stop-color="#06B6D4" stop-opacity="0"/>
    </radialGradient>
    <radialGradient id="glowEmerald" cx="50%" cy="80%" r="40%">
      <stop offset="0%" stop-color="#10B981" stop-opacity="0.06"/>
      <stop offset="100%" stop-color="#10B981" stop-opacity="0"/>
    </radialGradient>

    <!-- Shimmering Border Gradient -->
    <linearGradient id="borderShimmer" x1="0%" y1="0%" x2="100%" y2="100%">
      <animate attributeName="x1" values="0%;100%;0%" dur="12s" repeatCount="indefinite"/>
      <animate attributeName="y1" values="0%;100%;0%" dur="12s" repeatCount="indefinite"/>
      <stop offset="0%" stop-color="#7C3AED" stop-opacity="0.6"/>
      <stop offset="50%" stop-color="#22D3EE" stop-opacity="0.6"/>
      <stop offset="100%" stop-color="#10B981" stop-opacity="0.6"/>
    </linearGradient>

    <!-- Scanline Pattern -->
    <pattern id="scanlines" width="4" height="4" patternUnits="userSpaceOnUse">
      <line x1="0" y1="0" x2="4" y2="0" stroke="#000000" stroke-opacity="0.01" stroke-width="1"/>
    </pattern>

    <!-- ASCII Portrait Gradient -->
    <linearGradient id="asciiGrad" x1="0%" y1="0%" x2="0%" y2="100%">
      <stop offset="0%" stop-color="#0891B2"/>
      <stop offset="50%" stop-color="#7C3AED"/>
      <stop offset="100%" stop-color="#059669"/>
    </linearGradient>

    <!-- Title Gradient -->
    <linearGradient id="titleGrad" x1="0%" y1="0%" x2="100%" y2="0%">
      <stop offset="0%" stop-color="#0F172A"/>
      <stop offset="50%" stop-color="#0891B2"/>
      <stop offset="100%" stop-color="#059669"/>
    </linearGradient>

    <!-- Typing Mask for Command 1: kubectl get pods -->
    <mask id="typingMask1">
      <rect x="0" y="0" width="1180" height="610" fill="black"/>
      <rect x="562" y="120" width="0" height="30" fill="white">
        <animate attributeName="width" from="0" to="250" dur="1s" begin="1s" fill="freeze"/>
      </rect>
    </mask>

    <!-- Typing Mask for Command 2: terraform apply -->
    <mask id="typingMask2">
      <rect x="0" y="0" width="1180" height="610" fill="black"/>
      <rect x="562" y="270" width="0" height="30" fill="white">
        <animate attributeName="width" from="0" to="250" dur="1s" begin="4s" fill="freeze"/>
      </rect>
    </mask>

    <!-- Typing Mask for Command 3: aws eks update-kubeconfig -->
    <mask id="typingMask3">
      <rect x="0" y="0" width="1180" height="610" fill="black"/>
      <rect x="562" y="330" width="0" height="30" fill="white">
        <animate attributeName="width" from="0" to="250" dur="1.2s" begin="7s" fill="freeze"/>
      </rect>
    </mask>

    <!-- Typing Mask for Command 4: git push origin main -->
    <mask id="typingMask4">
      <rect x="0" y="0" width="1180" height="610" fill="black"/>
      <rect x="562" y="390" width="0" height="30" fill="white">
        <animate attributeName="width" from="0" to="250" dur="1s" begin="10s" fill="freeze"/>
      </rect>
    </mask>

    <!-- Shadows -->
    <filter id="shadow" x="-5%" y="-5%" width="110%" height="110%">
      <feDropShadow dx="0" dy="8" stdDeviation="12" flood-color="#0F172A" flood-opacity="0.06"/>
    </filter>
  </defs>

  <style>
    .font-sans { font-family: 'Outfit', 'Inter', -apple-system, sans-serif; }
    .font-mono { font-family: 'Courier New', Courier, monospace; font-weight: 500; }
    .title { font-size: 26px; font-weight: 800; fill: url(#titleGrad); }
    .subtitle { font-size: 14px; font-weight: 600; fill: #475569; letter-spacing: 1.5px; }
    .ascii-text { font-size: 11px; fill: url(#asciiGrad); line-height: 14px; }
    .term-header { font-size: 12px; fill: #94A3B8; font-weight: bold; }
    .term-body { font-size: 13.5px; fill: #F8FAFC; }
    .term-prompt { fill: #94A3B8; }
    .term-cmd { fill: #22D3EE; font-weight: bold; }
    .term-success { fill: #10B981; font-weight: bold; }
    .term-warning { fill: #F59E0B; }
    .term-error { fill: #EF4444; }
  </style>

  <!-- Background Base -->
  <rect width="1180" height="610" rx="16" fill="url(#bgGrad)"/>

  <!-- Radial Glow Orbs -->
  <rect width="1180" height="610" rx="16" fill="url(#glowViolet)"/>
  <rect width="1180" height="610" rx="16" fill="url(#glowCyan)"/>
  <rect width="1180" height="610" rx="16" fill="url(#glowEmerald)"/>

  <!-- Noise Scanlines -->
  <rect width="1180" height="610" rx="16" fill="url(#scanlines)" pointer-events="none"/>

  <!-- Floating Particles -->
  <g opacity="0.4">
    <circle cx="150" cy="120" r="1.5" fill="#0891B2">
      <animate attributeName="opacity" values="0.1;0.6;0.1" dur="4s" repeatCount="indefinite"/>
      <animate attributeName="cy" values="120;100;120" dur="6s" repeatCount="indefinite"/>
    </circle>
    <circle cx="350" cy="500" r="1" fill="#7C3AED">
      <animate attributeName="opacity" values="0.1;0.5;0.1" dur="5s" repeatCount="indefinite"/>
      <animate attributeName="cy" values="500;480;500" dur="7s" repeatCount="indefinite"/>
    </circle>
    <circle cx="450" cy="180" r="2" fill="#059669">
      <animate attributeName="opacity" values="0.1;0.6;0.1" dur="6s" repeatCount="indefinite"/>
      <animate attributeName="cy" values="180;200;180" dur="8s" repeatCount="indefinite"/>
    </circle>
    <circle cx="80" cy="400" r="1.5" fill="#0891B2">
      <animate attributeName="opacity" values="0.2;0.5;0.2" dur="4s" repeatCount="indefinite"/>
      <animate attributeName="cy" values="400;380;400" dur="5s" repeatCount="indefinite"/>
    </circle>
    <circle cx="1080" cy="100" r="2" fill="#0891B2">
      <animate attributeName="opacity" values="0.1;0.6;0.1" dur="5s" repeatCount="indefinite"/>
      <animate attributeName="cy" values="100;120;100" dur="7s" repeatCount="indefinite"/>
    </circle>
    <circle cx="950" cy="520" r="1.5" fill="#7C3AED">
      <animate attributeName="opacity" values="0.1;0.5;0.1" dur="4s" repeatCount="indefinite"/>
      <animate attributeName="cy" values="520;500;520" dur="6s" repeatCount="indefinite"/>
    </circle>
  </g>

  <!-- Left Column: Header Info -->
  <g transform="translate(60, 60)" class="font-sans">
    <!-- About Me Mini Intro -->
    <text x="0" y="20" class="subtitle" font-weight="bold">PLATFORM ENGINEERING &amp; DEVOPS</text>
    <text x="0" y="55" class="title">ALTHAF HUSSAIN SYED</text>
    
    <!-- Rotating Subtitles -->
    <g transform="translate(0, 85)">
      <!-- DevOps & Platform Engineer -->
      <text x="0" y="0" font-size="16" fill="#0891B2" font-weight="bold" opacity="1">
        <animate attributeName="opacity" values="1;1;0;0;0;0;1" keyTimes="0;0.29;0.33;0.66;0.96;0.99;1" dur="12s" repeatCount="indefinite"/>
        🚀 DevOps &amp; Cloud Platform Engineer
      </text>
      <!-- AWS Specialist -->
      <text x="0" y="0" font-size="16" fill="#059669" font-weight="bold" opacity="0">
        <animate attributeName="opacity" values="0;0;1;1;0;0;0" keyTimes="0;0.29;0.33;0.62;0.66;0.99;1" dur="12s" repeatCount="indefinite"/>
        ☁️ AWS Infrastructure Specialist
      </text>
      <!-- Kubernetes & IaC Expert -->
      <text x="0" y="0" font-size="16" fill="#7C3AED" font-weight="bold" opacity="0">
        <animate attributeName="opacity" values="0;0;0;0;1;1;0" keyTimes="0;0.62;0.66;0.96;0.99;1;1" dur="12s" repeatCount="indefinite"/>
        ☸️ Kubernetes &amp; Terraform Automation
      </text>
    </g>
  </g>

  <!-- Left Column: Cybernetic ASCII Portrait Container (Subtle Floating Animation) -->
  <g transform="translate(60, 190)" class="font-mono ascii-text" xml:space="preserve">
    <animateTransform attributeName="transform" type="translate" values="60,190; 60,185; 60,190" dur="6s" repeatCount="indefinite"/>
    <!-- Line-by-line reveal using delayed opacities -->
    <!-- Vector Kubernetes Steering Wheel Icon (Accurate Shape) -->
    <!-- Three Animated DevOps Stack Icons Side-by-Side -->
    <!-- 1. Kubernetes Steering Wheel (Slow Rotation) -->
    <g opacity="0">
      <animate attributeName="opacity" to="0.95" dur="0.5s" begin="0.1s" fill="freeze"/>
      <g>
        <animateTransform attributeName="transform" type="rotate" from="0 75 80" to="360 75 80" dur="25s" repeatCount="indefinite"/>
        <!-- Background -->
        <polygon points="75,40 106.3,55.1 114,88.9 92.4,116 57.6,116 36,88.9 43.7,55.1" fill="#326ce5"/>
        <!-- Rim -->
        <polygon points="75,45 101.4,58.3 108.2,87.6 89.4,110 60.6,110 41.8,87.6 48.6,58.3" fill="none" stroke="#ffffff" stroke-width="4.5" stroke-linejoin="round"/>
        <!-- Spokes -->
        <g id="k8s-spoke-small">
          <line x1="75" y1="80" x2="75" y2="45" stroke="#ffffff" stroke-width="4.5"/>
          <circle cx="75" cy="40" r="6" fill="#ffffff"/>
          <circle cx="75" cy="40" r="2.5" fill="#326ce5"/>
        </g>
        <use href="#k8s-spoke-small" transform="rotate(51.43, 75, 80)"/>
        <use href="#k8s-spoke-small" transform="rotate(102.86, 75, 80)"/>
        <use href="#k8s-spoke-small" transform="rotate(154.29, 75, 80)"/>
        <use href="#k8s-spoke-small" transform="rotate(205.71, 75, 80)"/>
        <use href="#k8s-spoke-small" transform="rotate(257.14, 75, 80)"/>
        <use href="#k8s-spoke-small" transform="rotate(308.57, 75, 80)"/>
        <!-- Hub -->
        <circle cx="75" cy="80" r="9" fill="#326ce5" stroke="#ffffff" stroke-width="4.5"/>
      </g>
    </g>

    <!-- 2. Docker Whale (Floating Animation) -->
    <g opacity="0">
      <animate attributeName="opacity" to="0.95" dur="0.5s" begin="0.25s" fill="freeze"/>
      <g>
        <animateTransform attributeName="transform" type="translate" values="0,0; 0,-5; 0,0" dur="4s" repeatCount="indefinite"/>
        <!-- Whale silhouette path scaled & translated -->
        <path transform="translate(155, 42) scale(3.3)" d="M13.983 11.078h2.119a.186.186 0 00.186-.185V9.006a.186.186 0 00-.186-.186h-2.119a.185.185 0 00-.185.185v1.888c0 .102.083.185.185.185m-2.954-5.43h2.118a.186.186 0 00.186-.186V3.574a.186.186 0 00-.186-.185h-2.118a.185.185 0 00-.185.185v1.888c0 .102.082.185.185.185m0 2.716h2.118a.187.187 0 00.186-.186V6.29a.186.186 0 00-.186-.185h-2.118a.185.185 0 00-.185.185v1.887c0 .102.082.185.185.186m-2.93 0h2.12a.186.186 0 00.184-.186V6.29a.185.185 0 00-.185-.185H8.1a.185.185 0 00-.185.185v1.887c0 .102.083.185.185.186m-2.964 0h2.119a.186.186 0 00.185-.186V6.29a.185.185 0 00-.185-.185H5.136a.186.186 0 00-.186.185v1.887c0 .102.084.185.186.186m5.893 2.715h2.118a.186.186 0 00.186-.185V9.006a.186.186 0 00-.186-.186h-2.118a.185.185 0 00-.185.185v1.888c0 .102.082.185.185.185m-2.93 0h2.12a.185.185 0 00.184-.185V9.006a.185.185 0 00-.184-.186h-2.12a.185.185 0 00-.184.185v1.888c0 .102.083.185.185.185m-2.964 0h2.119a.185.185 0 00.185-.185V9.006a.185.185 0 00-.184-.186h-2.12a.186.186 0 00-.186.186v1.887c0 .102.084.185.186.185m-2.92 0h2.12a.185.185 0 00.184-.185V9.006a.185.185 0 00-.184-.186h-2.12a.185.185 0 00-.184.185v1.888c0 .102.082.185.185.185M23.763 9.89c-.065-.051-.672-.51-1.954-.51-.338.001-.676.03-1.01.087-.248-1.7-1.653-2.53-1.716-2.566l-.344-.199-.226.327c-.284.438-.49.922-.612 1.43-.23.97-.09 1.882.403 2.661-.595.332-1.55.413-1.744.42H.751a.751.751 0 00-.75.748 11.376 11.376 0 00.692 4.062c.545 1.428 1.355 2.48 2.41 3.124 1.18.723 3.1 1.137 5.275 1.137.983.003 1.963-.086 2.93-.266a12.248 12.248 0 003.823-1.389c.98-.567 1.86-1.288 2.61-2.136 1.252-1.418 1.998-2.997 2.553-4.4h.221c1.372 0 2.215-.549 2.68-1.009.309-.293.55-.65.707-1.046l.098-.288Z" fill="#2496ed"/>
      </g>
    </g>

    <!-- 3. CI/CD Pipeline (Flowing Packets and Pulsing Halo Nodes) -->
    <g opacity="0">
      <animate attributeName="opacity" to="0.95" dur="0.5s" begin="0.4s" fill="freeze"/>
      <!-- Flowing connection lines -->
      <path d="M280,55 L345,80" stroke="#00f2fe" stroke-width="4.5" stroke-linecap="round" stroke-dasharray="8,6" fill="none">
        <animate attributeName="stroke-dashoffset" values="28;0" dur="1s" repeatCount="indefinite"/>
      </path>
      <path d="M280,105 L345,80" stroke="#00f2fe" stroke-width="4.5" stroke-linecap="round" stroke-dasharray="8,6" fill="none">
        <animate attributeName="stroke-dashoffset" values="28;0" dur="1s" repeatCount="indefinite"/>
      </path>
      
      <!-- Node 1 (Build - Cyan) -->
      <circle cx="280" cy="55" r="6" fill="#06b6d4">
        <animate attributeName="r" values="6;10;6" dur="2s" repeatCount="indefinite"/>
        <animate attributeName="opacity" values="1;0.4;1" dur="2s" repeatCount="indefinite"/>
      </circle>
      <circle cx="280" cy="55" r="5" fill="#06b6d4" stroke="#ffffff" stroke-width="1.5"/>

      <!-- Node 2 (Test - Violet) -->
      <circle cx="280" cy="105" r="6" fill="#7c3aed">
        <animate attributeName="r" values="6;10;6" dur="2s" begin="0.66s" repeatCount="indefinite"/>
        <animate attributeName="opacity" values="1;0.4;1" dur="2s" begin="0.66s" repeatCount="indefinite"/>
      </circle>
      <circle cx="280" cy="105" r="5" fill="#7c3aed" stroke="#ffffff" stroke-width="1.5"/>

      <!-- Node 3 (Deploy - Emerald) -->
      <circle cx="345" cy="80" r="7" fill="#10b981">
        <animate attributeName="r" values="7;11;7" dur="2s" begin="1.33s" repeatCount="indefinite"/>
        <animate attributeName="opacity" values="1;0.4;1" dur="2s" begin="1.33s" repeatCount="indefinite"/>
      </circle>
      <circle cx="345" cy="80" r="6" fill="#10b981" stroke="#ffffff" stroke-width="1.5"/>
    </g>

    <!-- Slanted K8S Letters centered at x=90 -->
    <text x="90" y="180" opacity="0"><animate attributeName="opacity" to="0.95" dur="0.1s" begin="0.75s" fill="freeze"/>  _   _     ___     _____  </text>
    <text x="90" y="196" opacity="0"><animate attributeName="opacity" to="0.95" dur="0.1s" begin="0.8s" fill="freeze"/> | |/ /    /   \   /     / </text>
    <text x="90" y="212" opacity="0"><animate attributeName="opacity" to="0.95" dur="0.1s" begin="0.85s" fill="freeze"/> | ' /    | (_) |  \_____\ </text>
    <text x="90" y="228" opacity="0"><animate attributeName="opacity" to="0.95" dur="0.1s" begin="0.9s" fill="freeze"/> |  &lt;      &gt; _ &lt;          \</text>
    <text x="90" y="244" opacity="0"><animate attributeName="opacity" to="0.95" dur="0.1s" begin="0.95s" fill="freeze"/> | . \    | (_) |  _____) |</text>
    <text x="90" y="260" opacity="0"><animate attributeName="opacity" to="0.95" dur="0.1s" begin="1.0s" fill="freeze"/> |_|\_\    \___/  /     /  </text>
    <text x="90" y="276" opacity="0"><animate attributeName="opacity" to="0.95" dur="0.1s" begin="1.05s" fill="freeze"/>                  \____/   </text>
    <text x="90" y="292" opacity="0"><animate attributeName="opacity" to="0.95" dur="0.1s" begin="1.1s" fill="freeze"/>                           </text>
    <text x="90" y="308" opacity="0"><animate attributeName="opacity" to="0.95" dur="0.1s" begin="1.15s" fill="freeze"/>                           </text>
    <text x="90" y="322" opacity="0"><animate attributeName="opacity" to="0.95" dur="0.1s" begin="1.2s" fill="freeze"/>                           </text>
  </g>

  <!-- Right Column: DevOps Terminal Window -->
  <g filter="url(#shadow)">
    <!-- Terminal Window Header -->
    <rect x="520" y="70" width="600" height="35" rx="12" fill="#1E293B"/>
    <!-- Cover bottom corners of header -->
    <rect x="520" y="90" width="600" height="15" fill="#1E293B"/>

    <!-- Window Buttons -->
    <circle cx="545" cy="87.5" r="6" fill="#EF4444"/>
    <circle cx="565" cy="87.5" r="6" fill="#F59E0B"/>
    <circle cx="585" cy="87.5" r="6" fill="#10B981"/>

    <!-- Window Title -->
    <text x="820" y="92" class="font-mono term-header" text-anchor="middle">althaf@devops-node-01:~</text>

    <!-- Terminal Body -->
    <rect x="520" y="105" width="600" height="435" rx="12" fill="#090D16"/>
    <!-- Cover top corners of body -->
    <rect x="520" y="105" width="600" height="15" fill="#090D16"/>

    <!-- Terminal Content (Monospace text) -->
    <g class="font-mono term-body">
      
      <!-- ==================== COMMAND 1 ==================== -->
      <!-- Prompt and Command -->
      <text x="545" y="140"><tspan class="term-prompt">$ </tspan><tspan class="term-cmd" mask="url(#typingMask1)">kubectl get pods</tspan></text>
      
      <!-- Blinking Typing Cursor 1 -->
      <rect x="562" y="125" width="8" height="18" fill="#22D3EE" opacity="0">
        <set attributeName="opacity" to="1" begin="1s"/>
        <animate attributeName="x" from="562" to="700" dur="1s" begin="1s" fill="freeze"/>
        <animate attributeName="opacity" values="1;0;1" dur="0.8s" begin="1s" repeatCount="indefinite"/>
        <set attributeName="opacity" to="0" begin="2s"/>
      </rect>

      <!-- Output 1 (Appears instantly at 2.2s) -->
      <g opacity="0">
        <set attributeName="opacity" to="1" begin="2.2s"/>
        <text x="545" y="165" fill="#64748B" font-weight="bold">NAME          READY   STATUS    RESTARTS   AGE</text>
        <text x="545" y="185">frontend      1/1     <tspan class="term-success">Running</tspan>   0          42d</text>
        <text x="545" y="205">backend       1/1     <tspan class="term-success">Running</tspan>   0          42d</text>
        <text x="545" y="225">prometheus    1/1     <tspan class="term-success">Running</tspan>   0          108d</text>
        <text x="545" y="245">grafana       1/1     <tspan class="term-success">Running</tspan>   0          108d</text>
      </g>

      <!-- ==================== COMMAND 2 ==================== -->
      <!-- Prompt and Command -->
      <g opacity="0">
        <set attributeName="opacity" to="1" begin="3.8s"/>
        <text x="545" y="285"><tspan class="term-prompt">$ </tspan><tspan class="term-cmd" mask="url(#typingMask2)">terraform apply</tspan></text>
      </g>
      
      <!-- Blinking Typing Cursor 2 -->
      <rect x="562" y="270" width="8" height="18" fill="#22D3EE" opacity="0">
        <set attributeName="opacity" to="1" begin="4s"/>
        <animate attributeName="x" from="562" to="690" dur="1s" begin="4s" fill="freeze"/>
        <animate attributeName="opacity" values="1;0;1" dur="0.8s" begin="4s" repeatCount="indefinite"/>
        <set attributeName="opacity" to="0" begin="5s"/>
      </rect>

      <!-- Output 2 (Appears at 5.2s) -->
      <g opacity="0">
        <set attributeName="opacity" to="1" begin="5.2s"/>
        <text x="545" y="310" class="term-success">Apply complete! Resources: 47 added.</text>
      </g>

      <!-- ==================== COMMAND 3 ==================== -->
      <!-- Prompt and Command -->
      <g opacity="0">
        <set attributeName="opacity" to="1" begin="6.8s"/>
        <text x="545" y="350"><tspan class="term-prompt">$ </tspan><tspan class="term-cmd" mask="url(#typingMask3)">aws eks update-kubeconfig</tspan></text>
      </g>
      
      <!-- Blinking Typing Cursor 3 -->
      <rect x="562" y="335" width="8" height="18" fill="#22D3EE" opacity="0">
        <set attributeName="opacity" to="1" begin="7s"/>
        <animate attributeName="x" from="562" to="780" dur="1.2s" begin="7s" fill="freeze"/>
        <animate attributeName="opacity" values="1;0;1" dur="0.8s" begin="7s" repeatCount="indefinite"/>
        <set attributeName="opacity" to="0" begin="8.2s"/>
      </rect>

      <!-- Output 3 (Appears at 8.4s) -->
      <g opacity="0">
        <set attributeName="opacity" to="1" begin="8.4s"/>
        <text x="545" y="375" fill="#E2E8F0">Updated context.</text>
      </g>

      <!-- ==================== COMMAND 4 ==================== -->
      <!-- Prompt and Command -->
      <g opacity="0">
        <set attributeName="opacity" to="1" begin="9.8s"/>
        <text x="545" y="415"><tspan class="term-prompt">$ </tspan><tspan class="term-cmd" mask="url(#typingMask4)">git push origin main</tspan></text>
      </g>
      
      <!-- Blinking Typing Cursor 4 -->
      <rect x="562" y="400" width="8" height="18" fill="#22D3EE" opacity="0">
        <set attributeName="opacity" to="1" begin="10s"/>
        <animate attributeName="x" from="562" to="740" dur="1s" begin="10s" fill="freeze"/>
        <animate attributeName="opacity" values="1;0;1" dur="0.8s" begin="10s" repeatCount="indefinite"/>
        <set attributeName="opacity" to="0" begin="11s"/>
      </rect>

      <!-- Output 4 (Appears at 11.2s) -->
      <g opacity="0">
        <set attributeName="opacity" to="1" begin="11.2s"/>
        <text x="545" y="440" class="term-success">Deployment Successful ✔</text>
      </g>
      
    </g>
  </g>

  <!-- Shimmering Outer Border -->
  <rect x="1" y="1" width="1178" height="608" rx="16" fill="none" stroke="url(#borderShimmer)" stroke-width="2"/>
  <rect x="8" y="8" width="1164" height="594" rx="12" fill="none" stroke="#000000" stroke-opacity="0.03" stroke-width="1"/>
</svg>
